<svg width="50" height="50" viewBox="0 0 50 50" fill="none" xmlns="http://www.w3.org/2000/svg">
<path d="M50 0H0V50H50V0Z" fill="#F7DF1E"/>
<path d="M13.1504 41.7809L16.9723 39.4658C17.712 40.7809 18.3833 41.8768 19.986 41.8768C21.534 41.8768 22.5066 41.2741 22.5066 38.9179V22.959H27.2052V39.0001C27.2052 43.8631 24.3559 46.0823 20.1915 46.0823C16.4381 46.0823 14.26 44.1371 13.1504 41.7809Z" fill="black"/>
<path d="M29.7676 41.2739L33.5895 39.0547C34.6032 40.6985 35.9046 41.904 38.2196 41.904C40.1648 41.904 41.4114 40.9314 41.4114 39.5889C41.4114 37.9725 40.1374 37.4109 37.9868 36.4657L36.8087 35.9588C33.4251 34.5205 31.1648 32.6985 31.1648 28.8766C31.1648 25.3561 33.8498 22.6711 38.0416 22.6711C41.0279 22.6711 43.1785 23.7122 44.7265 26.4246L41.0689 28.767C40.2607 27.3287 39.3977 26.7533 38.0553 26.7533C36.6854 26.7533 35.8087 27.63 35.8087 28.767C35.8087 30.178 36.6854 30.7533 38.6991 31.6163L39.8772 32.1232C43.8772 33.8355 46.1237 35.5752 46.1237 39.5068C46.1237 43.7396 42.795 46.0547 38.3429 46.0547C33.9594 46.0821 31.1374 43.9999 29.7676 41.2739Z" fill="black"/>
</svg>
