<svg width="50" height="50" viewBox="0 0 50 50" fill="none" xmlns="http://www.w3.org/2000/svg">
<path d="M14.9986 15.4309H12.2374L19.7651 36.71L23.9793 24.6672L20.712 15.4309H17.7987V13.4033H30.6996V15.4309H27.6786L35.2062 36.71L37.912 28.9773C41.4616 19.0703 35.0028 15.9842 35.0028 13.7733C35.0028 11.5623 36.7952 9.77 39.006 9.77C39.1257 9.77 39.2418 9.77648 39.3556 9.78709C35.6095 6.25069 30.5581 4.08203 24.9998 4.08203C17.7371 4.08203 11.3396 7.78406 7.58936 13.4033H14.9983V15.4309H14.9986Z" fill="#00769D"/>
<path d="M4.08203 25C4.08203 33.0086 8.58331 39.9648 15.1932 43.4798L5.75323 16.7953C4.67789 19.3145 4.08203 22.0877 4.08203 25Z" fill="#00769D"/>
<path d="M43.2048 14.6923C43.504 16.454 43.4134 18.4342 42.9543 20.422H43.0375L42.7212 21.3258C42.5337 21.9784 42.2977 22.6459 42.0297 23.3019L34.832 43.4663C41.428 39.947 45.9178 32.9983 45.9178 24.9999C45.9178 21.252 44.9311 17.7348 43.2048 14.6923Z" fill="#00769D"/>
<path d="M18.5488 44.9025C20.581 45.5608 22.7487 45.9178 25.0002 45.9178C27.1477 45.9178 29.2194 45.5937 31.1698 44.9925L25.051 27.6962L18.5488 44.9025Z" fill="#00769D"/>
<path d="M42.6777 7.32231C37.9558 2.60045 31.6777 0 24.9999 0C18.3222 0 12.0442 2.60045 7.32231 7.32231C2.60045 12.0442 0 18.3222 0 25.0001C0 31.6778 2.60045 37.9558 7.32231 42.6777C12.0442 47.3996 18.3223 50 25.0001 50C31.6778 50 37.9558 47.3996 42.6778 42.6777C47.3997 37.9558 50.0001 31.6777 50.0001 25.0001C50 18.3222 47.3996 12.0442 42.6777 7.32231ZM24.9999 48.2364C12.1874 48.2364 1.76356 37.8126 1.76356 25.0001C1.76356 12.1875 12.1874 1.76356 24.9999 1.76356C37.8125 1.76356 48.2363 12.1875 48.2363 25.0001C48.2363 37.8126 37.8126 48.2364 24.9999 48.2364Z" fill="#00769D"/>
</svg>
