<svg width="254" height="114" viewBox="0 0 254 114" fill="none" xmlns="http://www.w3.org/2000/svg">
<g filter="url(#filter0_d_3160_531)">
<g clip-path="url(#clip0_3160_531)">
<path d="M20 60H236V102H20V60Z" fill="black"/>
<path d="M31 0H224V70C224 81.0457 215.046 90 204 90H31V0Z" fill="white"/>
<path d="M62 27C62 21.4772 66.4772 17 72 17H107C112.523 17 117 21.4772 117 27V62C117 67.5228 112.523 72 107 72H62V27Z" fill="black"/>
<path d="M76.4406 29.2588L81.3025 29.2748L89.553 50.7006L97.8725 29.2588H102.728L108 59.9999H102.217L98.8471 40.5857L92.1705 59.9999H86.8984L80.2809 40.5857L76.8311 59.9999H71L76.4406 29.2588Z" fill="white"/>
<path d="M92.3204 59.7411H86.9098L76.1304 29H81.6753L84.1304 35.7305H95.1304L97.5855 29H103.13L92.3204 59.7411ZM89.6304 50.6148L93.3421 41.0375H85.8434L89.6304 50.6148Z" fill="white"/>
<path d="M127 43.9584L132.293 28.3477H135.494L140.766 43.9584H137.464L136.404 40.5923H131.352L130.302 43.9584H127ZM132.122 38.1363H135.644L133.92 32.636H133.855L132.122 38.1363Z" fill="black"/>
<path d="M142.766 39.4132L142.788 39.3495H145.823C145.823 40.2717 146.094 40.9502 146.637 41.3861C147.181 41.8219 147.916 42.0404 148.846 42.0404C149.683 42.0404 150.321 41.8647 150.76 41.5145C151.199 41.1643 151.42 40.6955 151.42 40.1081C151.42 39.5076 151.211 39.0245 150.793 38.6589C150.374 38.2944 149.64 37.9508 148.589 37.6291C146.788 37.0857 145.421 36.4445 144.489 35.7078C143.555 34.9712 143.09 33.9655 143.09 32.692C143.09 31.4151 143.616 30.3721 144.667 29.5619C145.717 28.7528 147.058 28.3477 148.687 28.3477C150.442 28.3477 151.858 28.7824 152.931 29.653C153.969 30.4951 154.484 31.5897 154.477 32.939C154.477 32.9818 154.477 33.0279 154.477 33.0784L154.455 33.1509H151.336C151.336 32.3681 151.1 31.7675 150.628 31.3471C150.156 30.9266 149.495 30.7169 148.644 30.7169C147.872 30.7169 147.275 30.9035 146.854 31.2746C146.432 31.6468 146.221 32.1222 146.221 32.7018C146.221 33.231 146.449 33.6658 146.907 34.0061C147.365 34.3454 148.154 34.7055 149.277 35.0842C151 35.5706 152.31 36.2063 153.207 36.9891C154.104 37.7729 154.552 38.8049 154.552 40.0851C154.552 41.4223 154.03 42.4773 152.986 43.2492C151.942 44.021 150.563 44.4074 148.847 44.4074C147.167 44.4074 145.727 43.9891 144.526 43.1525C143.353 42.3368 142.767 41.1357 142.767 39.5482C142.766 39.5087 142.766 39.4626 142.766 39.4132Z" fill="black"/>
<path d="M156.552 30.7597V28.3477H168.538V30.7597H164.079V43.9584H160.948V30.7597H156.552Z" fill="black"/>
<path d="M170.539 43.9584V28.3477H180.531V30.7597H173.67V34.6835H179.459V37.0955H173.67V41.5452H180.553V43.9573H170.539V43.9584Z" fill="black"/>
<path d="M182.553 43.9584V28.3477H185.684V41.5452H192.675V43.9573H182.553V43.9584Z" fill="black"/>
<path d="M133.643 60.652V54.4072H134.754L136.74 59.4805H136.765L138.759 54.4072H139.81V60.652H138.964V55.9728L138.939 55.9684L137.048 60.652H136.46L134.514 55.8147L134.488 55.8191V60.652H133.643Z" fill="black"/>
<path d="M147.81 60.652V54.4072H151.61V55.0714H148.654V57.0915H151.219V57.7558H148.654V59.9855H151.656V60.6498H147.81V60.652Z" fill="black"/>
<path d="M159.656 60.652V54.4072H161.62C162.434 54.4072 163.09 54.6586 163.586 55.1604C164.082 55.6621 164.331 56.3109 164.331 57.1047V57.9578C164.331 58.7559 164.082 59.4037 163.586 59.9021C163.09 60.4005 162.434 60.6509 161.62 60.6509H159.656V60.652ZM160.5 59.9866H161.62C162.197 59.9866 162.653 59.7967 162.986 59.4168C163.318 59.037 163.485 58.5495 163.485 57.9556V57.0948C163.485 56.5064 163.318 56.0222 162.986 55.6423C162.653 55.2625 162.197 55.0725 161.62 55.0725H160.5V59.9866Z" fill="black"/>
<path d="M172.331 60.652V54.4072H173.176V60.652H172.331Z" fill="black"/>
<path d="M181.176 60.652L183.428 54.4072H184.152L186.357 60.652H185.495L184.946 59.0436H182.595L182.038 60.652H181.176ZM182.839 58.3365H184.704L183.795 55.6566H183.77L182.839 58.3365Z" fill="black"/>
</g>
</g>
<defs>
<filter id="filter0_d_3160_531" x="-2" y="-16" width="256" height="142" filterUnits="userSpaceOnUse" color-interpolation-filters="sRGB">
<feFlood flood-opacity="0" result="BackgroundImageFix"/>
<feColorMatrix in="SourceAlpha" type="matrix" values="0 0 0 0 0 0 0 0 0 0 0 0 0 0 0 0 0 0 127 0" result="hardAlpha"/>
<feOffset dy="4"/>
<feGaussianBlur stdDeviation="10"/>
<feComposite in2="hardAlpha" operator="out"/>
<feColorMatrix type="matrix" values="0 0 0 0 0 0 0 0 0 0 0 0 0 0 0 0 0 0 0.05 0"/>
<feBlend mode="normal" in2="BackgroundImageFix" result="effect1_dropShadow_3160_531"/>
<feBlend mode="normal" in="SourceGraphic" in2="effect1_dropShadow_3160_531" result="shape"/>
</filter>
<clipPath id="clip0_3160_531">
<path d="M18 0H234V72C234 88.5685 220.569 102 204 102H18V0Z" fill="white"/>
</clipPath>
</defs>
</svg>
