<svg width="18" height="18" viewBox="0 0 18 18" fill="none" xmlns="http://www.w3.org/2000/svg">
<path d="M9.47369 1.88867C5.63137 1.88867 2.5044 4.90048 2.50305 8.6019C2.50214 9.78558 2.82369 10.9408 3.43337 11.9583L2.44434 15.4371L6.13988 14.5036C7.16785 15.0413 8.31086 15.3218 9.47098 15.321H9.47369C13.316 15.321 16.443 12.3087 16.4443 8.60732C16.4452 6.81441 15.7209 5.12674 14.4044 3.85816C13.0884 2.58912 11.3384 1.88912 9.47369 1.88867ZM9.47369 14.187H9.47143C8.43182 14.187 7.41208 13.9178 6.5224 13.4093L6.31014 13.2883L4.11801 13.842L4.7033 11.7826L4.56556 11.5717C3.987 10.6893 3.67902 9.65705 3.6795 8.6019C3.68085 5.52506 6.28034 3.02267 9.47595 3.02267C11.0232 3.02312 12.4778 3.60435 13.5721 4.65887C14.6663 5.71338 15.2683 7.11564 15.2674 8.60687C15.2661 11.6837 12.6675 14.187 9.47369 14.187ZM12.6517 10.0073C12.4774 9.92377 11.6211 9.51777 11.4612 9.46132C11.3018 9.40577 11.1858 9.37687 11.0697 9.54487C10.9541 9.71287 10.6199 10.0909 10.5187 10.2024C10.4167 10.3144 10.315 10.328 10.1407 10.2444C9.9664 10.1604 9.40505 9.98338 8.74027 9.41164C8.22227 8.96725 7.87272 8.41809 7.77111 8.24964C7.6695 8.08209 7.76027 7.99132 7.84743 7.90777C7.92556 7.83325 8.02175 7.71222 8.10846 7.61422C8.19517 7.51622 8.22408 7.44622 8.28279 7.33422C8.34059 7.22267 8.31169 7.12422 8.26788 7.04067C8.22408 6.95622 7.87634 6.13067 7.73046 5.79512C7.58956 5.46816 7.44595 5.51196 7.33892 5.50654C7.2373 5.50203 7.12169 5.50067 7.00472 5.50067C6.88956 5.50067 6.70034 5.54267 6.54046 5.71067C6.38105 5.87867 5.93079 6.28422 5.93079 7.10977C5.93079 7.93577 6.55492 8.73332 6.64208 8.84532C6.72924 8.95687 7.87046 10.6518 9.61775 11.3789C10.0332 11.5509 10.3575 11.6543 10.6109 11.732C11.0281 11.8598 11.4079 11.8413 11.7078 11.7984C12.042 11.7501 12.7384 11.3929 12.8829 11.0013C13.0283 10.6098 13.0283 10.2738 12.985 10.2038C12.9425 10.1338 12.826 10.0918 12.6517 10.0073Z" fill="black"/>
</svg>
